<svg xmlns="http://www.w3.org/2000/svg" version="1.1" xmlns:xlink="http://www.w3.org/1999/xlink" xmlns:svgjs="http://svgjs.dev/svgjs" width="128" height="128" viewBox="0 0 128 128"><g transform="matrix(0.8046875,0,0,0.8046875,12.221578124999994,18.515019525155637)"><svg viewBox="0 0 96 84" data-background-color="#ffffff" preserveAspectRatio="xMidYMid meet" height="112" width="128" xmlns="http://www.w3.org/2000/svg" xmlns:xlink="http://www.w3.org/1999/xlink"><g id="tight-bounds" transform="matrix(1,0,0,1,0.25950000000000273,0.39376820956367453)"><svg viewBox="0 0 95.481 83.21246358087265" height="83.21246358087265" width="95.481"><g><svg viewBox="0 0 95.481 83.21246358087265" height="83.21246358087265" width="95.481"><g><svg viewBox="0 0 95.481 83.21246358087265" height="83.21246358087265" width="95.481"><g id="textblocktransform"><svg viewBox="0 0 95.481 83.21246358087265" height="83.21246358087265" width="95.481" id="textblock"><g><svg viewBox="0 0 95.481 83.21246358087265" height="83.21246358087265" width="95.481"><g><svg viewBox="0 0 95.481 83.21246358087265" height="83.21246358087265" width="95.481"><g><svg xmlns="http://www.w3.org/2000/svg" xmlns:xlink="http://www.w3.org/1999/xlink" version="1.0" x="0" y="0" viewBox="1.118 4.1185758 47.921 41.76353899999999" enable-background="new 0 0 50 50" xml:space="preserve" height="83.21246358087265" width="95.481" class="icon-icon-0" data-fill-palette-color="accent" id="icon-0"></svg></g></svg></g></svg></g></svg></g></svg></g></svg></g><defs></defs><mask id="dbf04815-015f-42cd-bb05-00e67056d7dc"><g id="SvgjsG4541"><svg viewBox="0 0 95.481 83.21246358087265" height="83.21246358087265" width="95.481"><g><svg viewBox="0 0 95.481 83.21246358087265" height="83.21246358087265" width="95.481"><g><svg viewBox="0 0 95.481 83.21246358087265" height="83.21246358087265" width="95.481"><g id="SvgjsG4540"><svg viewBox="0 0 95.481 83.21246358087265" height="83.21246358087265" width="95.481" id="SvgjsSvg4539"><g><svg viewBox="0 0 95.481 83.21246358087265" height="83.21246358087265" width="95.481"><g><svg viewBox="0 0 95.481 83.21246358087265" height="83.21246358087265" width="95.481"><g><svg xmlns="http://www.w3.org/2000/svg" xmlns:xlink="http://www.w3.org/1999/xlink" version="1.0" x="0" y="0" viewBox="1.118 4.1185758 47.921 41.76353899999999" enable-background="new 0 0 50 50" xml:space="preserve" height="83.21246358087265" width="95.481" class="icon-icon-0" data-fill-palette-color="accent" id="SvgjsSvg4538"><g fill="white"><g fill="white"><polygon fill="white" points="10.821,24.951 21,32.193 21,39.035 1.118,24.891 21,11.118 21,17.9   "></polygon></g><g fill="white"><polygon fill="white" points="49.039,25.277 35.815,16.063 34.219,21.712 39.475,25.338 31.411,30.97 29,38.79 29,39.424   "></polygon></g><rect x="25.577" y="3.983" transform="matrix(0.9606 0.278 -0.278 0.9606 8.0575 -6.8179)" fill="white" width="4.981" height="42.035"></rect></g></svg></g></svg></g></svg></g></svg></g></svg></g></svg></g><defs><mask></mask></defs></svg><rect width="95.481" height="83.21246358087265" fill="black" stroke="none" visibility="hidden"></rect></g></mask><linearGradient x1="0.054" x2="0.941" y1="0.5" y2="0.5" id="e7e56558-a7f9-4022-83f9-e3b72379231b"><stop stop-color="#9c7945" offset="0"></stop><stop stop-color="#faf3aa" offset="0.498"></stop><stop stop-color="#9c7945" offset="1"></stop></linearGradient><rect width="95.481" height="83.21246358087265" fill="url(#e7e56558-a7f9-4022-83f9-e3b72379231b)" mask="url(#dbf04815-015f-42cd-bb05-00e67056d7dc)" data-fill-palette-color="accent"></rect></svg><rect width="95.481" height="83.21246358087265" fill="none" stroke="none" visibility="hidden"></rect></g></svg></g></svg>