<svg xmlns="http://www.w3.org/2000/svg" version="1.1" xmlns:xlink="http://www.w3.org/1999/xlink" xmlns:svgjs="http://svgjs.dev/svgjs" width="2000" height="555" viewBox="0 0 2000 555"><g transform="matrix(1,0,0,1,-1.2121212121212466,-2.476182142278219)"><svg viewBox="0 0 396 110" data-background-color="#000000" preserveAspectRatio="xMidYMid meet" height="555" width="2000" xmlns="http://www.w3.org/2000/svg" xmlns:xlink="http://www.w3.org/1999/xlink"><g id="tight-bounds" transform="matrix(1,0,0,1,0.2400000000000091,0.49077483901010055)"><svg viewBox="0 0 395.52 109.0184503219798" height="109.0184503219798" width="395.52"><g><svg viewBox="0 0 395.52 109.0184503219798" height="109.0184503219798" width="395.52"><g><svg viewBox="0 0 395.52 109.0184503219798" height="109.0184503219798" width="395.52"><g><svg viewBox="0 0 395.52 109.0184503219798" height="109.0184503219798" width="395.52"><g><svg viewBox="0 0 395.52 109.0184503219798" height="109.0184503219798" width="395.52"><g id="textblocktransform"><svg viewBox="0 0 395.52 109.0184503219798" height="109.0184503219798" width="395.52" id="textblock"><g><svg viewBox="0 0 395.52 66.94447018931902" height="66.94447018931902" width="395.52"><g transform="matrix(1,0,0,1,0,0)"><svg width="395.52" viewBox="0.85 -41.55 353.87 59.9" height="66.94447018931902" data-palette-color="url(#d129b765-3956-4fd0-910e-07585f65ab38)"></svg></g></svg></g><g transform="matrix(1,0,0,1,245.2224,82.7484529337327)"><svg viewBox="0 0 150.2976 26.26999738824711" height="26.26999738824711" width="150.2976"><g transform="matrix(1,0,0,1,0,0)"><svg width="150.2976" viewBox="2.7 -34.3 199.08 34.8" height="26.26999738824711" data-palette-color="url(#3662751a-e89c-4179-8d09-cd857f44ffa1)"></svg></g></svg></g></svg></g></svg></g><g></g></svg></g></svg></g></svg></g><defs></defs><mask id="9fc47c8b-a423-472b-a7da-54941ab2510b"><g id="SvgjsG1263"><svg viewBox="0 0 395.52 109.0184503219798" height="109.0184503219798" width="395.52"><g><svg viewBox="0 0 395.52 109.0184503219798" height="109.0184503219798" width="395.52"><g><svg viewBox="0 0 395.52 109.0184503219798" height="109.0184503219798" width="395.52"><g><svg viewBox="0 0 395.52 109.0184503219798" height="109.0184503219798" width="395.52"><g><svg viewBox="0 0 395.52 109.0184503219798" height="109.0184503219798" width="395.52"><g id="SvgjsG1262"><svg viewBox="0 0 395.52 109.0184503219798" height="109.0184503219798" width="395.52" id="SvgjsSvg1261"><g><svg viewBox="0 0 395.52 66.94447018931902" height="66.94447018931902" width="395.52"><g transform="matrix(1,0,0,1,0,0)"><svg width="395.52" viewBox="0.85 -41.55 353.87 59.9" height="66.94447018931902" data-palette-color="url(#d129b765-3956-4fd0-910e-07585f65ab38)"><path d="M23.8-36.95L23.8-36.95Q25.7-36.95 27.75-36.25 29.8-35.55 31.35-34.45L31.35-34.45Q30.85-31.9 30.43-29.85 30-27.8 29.65-26.13 29.3-24.45 28.98-23.08 28.65-21.7 28.35-20.5L28.35-20.5Q27.15-16 25.88-12.38 24.6-8.75 23.18-5.85 21.75-2.95 20.18-0.7 18.6 1.55 16.8 3.25L16.8 3.25Q15.05 4.9 13.3 5.95 11.55 7 10.05 7.3L10.05 7.3Q8.05 7.3 6.35 6.85 4.65 6.4 3.43 5.63 2.2 4.85 1.53 3.78 0.85 2.7 0.85 1.4L0.85 1.4Q0.85 0 1.55-2.13 2.25-4.25 3.7-7.15L3.7-7.15Q4.3-7.1 5.1-6.85 5.9-6.6 6.7-6.25 7.5-5.9 8.15-5.48 8.8-5.05 9.1-4.65L9.1-4.65Q7.5-3 6.5-1.03 5.5 0.95 5.5 2.4L5.5 2.4Q5.5 3.25 5.83 3.93 6.15 4.6 6.95 5.15L6.95 5.15Q10 4 12.9 0.88 15.8-2.25 18.05-6.9L18.05-6.9Q19.4-9.65 20.5-13.2 21.6-16.75 22.38-20.33 23.15-23.9 23.58-27.18 24-30.45 24-32.7L24-32.7Q24-33.05 23.98-33.68 23.95-34.3 23.93-34.98 23.9-35.65 23.85-36.2 23.8-36.75 23.8-36.95ZM64.65-27.55L64.65-27.55Q64.65-25.15 63.57-23.03 62.5-20.9 60.6-19.23 58.7-17.55 56.15-16.4 53.6-15.25 50.6-14.85L50.6-14.85Q51.35-12.6 52.42-10.23 53.5-7.85 54.75-5.65 56-3.45 57.35-1.6 58.7 0.25 60 1.45L60 1.45Q59.75 1.95 59.27 2.45 58.8 2.95 58.17 3.38 57.55 3.8 56.87 4.08 56.2 4.35 55.6 4.35L55.6 4.35Q54.5 4.35 53.5 3.3 52.5 2.25 51.47-0.03 50.45-2.3 49.32-5.93 48.2-9.55 46.85-14.65L46.85-14.65Q46.3-14.65 45.75-14.65 45.2-14.65 44.9-14.75L44.9-14.75Q44.55-14.95 44.15-15.45L44.15-15.45Q42.8-12.55 41.75-10 40.7-7.45 39.87-5.08 39.05-2.7 38.42-0.48 37.8 1.75 37.35 4.05L37.35 4.05Q35.65 3.65 34.4 2.6 33.15 1.55 32.05-0.35L32.05-0.35Q32.25-0.8 32.47-1.23 32.7-1.65 33.05-2.43 33.4-3.2 33.92-4.4 34.45-5.6 35.32-7.6 36.2-9.6 37.42-12.5 38.65-15.4 40.4-19.55L40.4-19.55Q41.2-21.4 41.77-22.8 42.35-24.2 42.8-25.48 43.25-26.75 43.62-28.03 44-29.3 44.4-30.95L44.4-30.95Q42.1-30.15 40.12-29.18 38.15-28.2 36.85-27.1L36.85-27.1Q36.4-27.4 35.92-28 35.45-28.6 35.05-29.33 34.65-30.05 34.35-30.8 34.05-31.55 34-32.15L34-32.15Q35.5-33.15 37.67-34 39.85-34.85 42.3-35.48 44.75-36.1 47.3-36.45 49.85-36.8 52.05-36.8L52.05-36.8Q58.05-36.8 61.35-34.33 64.65-31.85 64.65-27.55ZM51.85-32.7L52.45-31.75Q52.1-31.3 51.35-29.95 50.6-28.6 49.62-26.73 48.65-24.85 47.57-22.65 46.5-20.45 45.5-18.3L45.5-18.3Q49.25-18.3 52.4-19 55.55-19.7 57.85-20.98 60.15-22.25 61.42-23.98 62.7-25.7 62.7-27.8L62.7-27.8Q62.7-30.3 60.9-31.63 59.1-32.95 55.35-32.95L55.35-32.95Q54.5-32.95 53.65-32.88 52.8-32.8 51.85-32.7L51.85-32.7ZM73.05-30.3L73.05-30.3Q71.05-30.3 69.97-31.43 68.9-32.55 68.9-34.15L68.9-34.15Q68.9-34.55 69.02-35.1 69.15-35.65 69.35-36.05L69.35-36.05Q70-35.75 71.27-35.63 72.55-35.5 74.25-35.5L74.25-35.5Q76.8-35.5 80.02-35.73 83.25-35.95 86.2-36.2 89.15-36.45 91.4-36.68 93.65-36.9 94.3-36.9L94.3-36.9Q96.15-36.9 96.97-35.52 97.8-34.15 98.2-31.85L98.2-31.85Q96.9-31.95 95.62-32.02 94.35-32.1 93.45-32.1L93.45-32.1Q91.85-32.1 90.22-32 88.6-31.9 86.95-31.7L86.95-31.7Q86.25-30.25 85.4-28.28 84.55-26.3 83.72-24.15 82.9-22 82.15-19.88 81.4-17.75 80.85-16.05L80.85-16.05Q79.75-12.75 78.92-9.95 78.1-7.15 77.47-4.73 76.85-2.3 76.4-0.1 75.95 2.1 75.6 4.2L75.6 4.2Q72.25 3.7 70 0L70 0Q70.4-1.55 70.97-3.38 71.55-5.2 72.32-7.53 73.1-9.85 74.15-12.8 75.2-15.75 76.55-19.5L76.55-19.5Q77.05-20.9 77.6-22.43 78.15-23.95 78.67-25.45 79.2-26.95 79.62-28.35 80.05-29.75 80.35-30.9L80.35-30.9Q78.25-30.65 76.37-30.48 74.5-30.3 73.05-30.3ZM104.59-20.7L104.59-20.7Q104.39-17.6 103.49-15.38 102.59-13.15 100.92-11.48 99.24-9.8 96.84-8.45 94.44-7.1 91.24-5.85L91.24-5.85Q91.24-5.55 91.22-5.23 91.19-4.9 91.19-4.55L91.19-4.55Q91.19-3.9 91.29-3.2 91.39-2.5 91.64-1.9 91.89-1.3 92.34-0.93 92.79-0.55 93.49-0.55L93.49-0.55Q94.84-0.55 96.14-1.15 97.44-1.75 98.62-2.63 99.79-3.5 100.82-4.53 101.84-5.55 102.64-6.4L102.64-6.4Q103.14-5.95 103.49-5.55L103.49-5.55Q101.24-2.55 98.57-0.58 95.89 1.4 93.49 1.95L93.49 1.95Q90.04 1.55 88.12-0.58 86.19-2.7 86.19-5.7L86.19-5.7Q86.19-7.75 86.77-9.88 87.34-12 88.37-13.98 89.39-15.95 90.77-17.7 92.14-19.45 93.72-20.75 95.29-22.05 96.97-22.8 98.64-23.55 100.29-23.55L100.29-23.55Q102.59-23.25 104.59-20.7ZM101.14-19.05L101.14-19.05Q99.79-18.85 98.34-17.95 96.89-17.05 95.62-15.55 94.34-14.05 93.29-12.05 92.24-10.05 91.64-7.75L91.64-7.75Q95.64-9.75 98.29-12.68 100.94-15.6 101.14-19.05ZM105.69-1L105.69-1Q105.94-2.45 106.57-4.83 107.19-7.2 108.04-9.88 108.89-12.55 109.84-15.25 110.79-17.95 111.69-20.1L111.69-20.1Q112.34-21.65 112.84-22.53 113.34-23.4 113.94-24L113.94-24Q114.64-23.9 115.39-23.65 116.14-23.4 116.84-23.05 117.54-22.7 118.09-22.33 118.64-21.95 118.94-21.6L118.94-21.6Q117.59-20 116.57-17.95 115.54-15.9 114.49-12.7L114.49-12.7Q117.19-15.1 119.27-17.3 121.34-19.5 123.14-22.2L123.14-22.2Q123.44-22.45 124.19-22.45L124.19-22.45Q124.89-22.45 125.54-22.23 126.19-22 126.44-21.6L126.44-21.6Q125.54-19.2 125.54-16.85L125.54-16.85Q125.54-14.65 126.19-13.55L126.19-13.55Q126.14-13.25 125.52-12.4 124.89-11.55 124.14-10.8L124.14-10.8Q122.79-11.5 121.74-12.73 120.69-13.95 120.19-15.4L120.19-15.4Q117.84-13.75 116.19-12.18 114.54-10.6 113.37-8.68 112.19-6.75 111.37-4.25 110.54-1.75 109.79 1.7L109.79 1.7Q109.34 1.65 108.72 1.38 108.09 1.1 107.47 0.7 106.84 0.3 106.34-0.15 105.84-0.6 105.69-1ZM125.84-1L125.84-1Q126.09-2.45 126.71-4.83 127.34-7.2 128.19-9.88 129.04-12.55 129.99-15.25 130.94-17.95 131.84-20.1L131.84-20.1Q132.49-21.65 132.99-22.53 133.49-23.4 134.09-24L134.09-24Q134.79-23.9 135.54-23.65 136.29-23.4 136.99-23.05 137.69-22.7 138.24-22.33 138.79-21.95 139.09-21.6L139.09-21.6Q137.74-20 136.71-17.95 135.69-15.9 134.64-12.7L134.64-12.7Q137.34-15.1 139.41-17.3 141.49-19.5 143.29-22.2L143.29-22.2Q143.59-22.45 144.34-22.45L144.34-22.45Q145.04-22.45 145.69-22.23 146.34-22 146.59-21.6L146.59-21.6Q145.69-19.2 145.69-16.85L145.69-16.85Q145.69-14.65 146.34-13.55L146.34-13.55Q146.29-13.25 145.66-12.4 145.04-11.55 144.29-10.8L144.29-10.8Q142.94-11.5 141.89-12.73 140.84-13.95 140.34-15.4L140.34-15.4Q137.99-13.75 136.34-12.18 134.69-10.6 133.51-8.68 132.34-6.75 131.51-4.25 130.69-1.75 129.94 1.7L129.94 1.7Q129.49 1.65 128.86 1.38 128.24 1.1 127.61 0.7 126.99 0.3 126.49-0.15 125.99-0.6 125.84-1ZM165.99-7.75L165.99-7.75Q164.84-4.1 163.69-1.1 162.54 1.9 161.24 4.42 159.94 6.95 158.44 9.08 156.94 11.2 155.14 13.1L155.14 13.1Q152.84 15.5 150.39 16.78 147.94 18.05 145.49 18.05L145.49 18.05Q144.24 18.05 143.01 17.78 141.79 17.5 140.71 17.03 139.64 16.55 138.81 15.93 137.99 15.3 137.64 14.6L137.64 14.6Q137.64 14 138.34 13.55L138.34 13.55Q138.94 14.1 139.34 14.4 139.74 14.7 140.11 14.9 140.49 15.1 140.91 15.15 141.34 15.2 141.89 15.2L141.89 15.2Q144.74 15.2 147.46 13.53 150.19 11.85 152.61 8.78 155.04 5.7 157.04 1.33 159.04-3.05 160.44-8.45L160.44-8.45Q159.79-7.45 158.84-6 157.89-4.55 156.74-3.13 155.59-1.7 154.36-0.55 153.14 0.6 151.99 1L151.99 1Q151.19 0.95 150.31 0.68 149.44 0.4 148.66-0.1 147.89-0.6 147.29-1.3 146.69-2 146.49-2.9L146.49-2.9Q146.49-4.35 146.59-5.23 146.69-6.1 146.94-7.15L146.94-7.15Q147.39-9.05 148.26-11.45 149.14-13.85 150.31-16.18 151.49-18.5 152.91-20.53 154.34-22.55 155.89-23.7L155.89-23.7Q156.29-23.7 156.89-23.63 157.49-23.55 158.14-23.35 158.79-23.15 159.39-22.88 159.99-22.6 160.44-22.15L160.44-22.15Q159.89-21.65 158.04-18.8 156.19-15.95 153.94-10.6L153.94-10.6Q153.69-10.05 153.34-9 152.99-7.95 152.66-6.8 152.34-5.65 152.09-4.55 151.84-3.45 151.84-2.8L151.84-2.8Q151.84-2.4 151.96-2.2 152.09-2 152.19-1.9L152.19-1.9Q153.09-2.05 154.59-3.38 156.09-4.7 157.99-7.5L157.99-7.5Q159.19-9.3 160.19-11.08 161.19-12.85 162.16-14.65 163.14-16.45 164.19-18.35 165.24-20.25 166.44-22.25L166.44-22.25Q167.09-22.25 167.84-22.1 168.59-21.95 169.29-21.73 169.99-21.5 170.51-21.23 171.04-20.95 171.29-20.65L171.29-20.65Q169.74-17.35 168.39-14.2 167.04-11.05 165.99-7.75ZM204.38 3.7L204.38 3.7Q204.28 3.75 204.18 3.75 204.08 3.75 203.78 3.75L203.78 3.75Q203.08 3.75 202.16 3.53 201.23 3.3 200.36 2.98 199.48 2.65 198.86 2.25 198.23 1.85 198.08 1.55L198.08 1.55Q198.03 0.85 198.03 0.1 198.03-0.65 198.03-1.35L198.03-1.35Q198.03-6.95 198.86-13.05 199.68-19.15 201.58-26.25L201.58-26.25Q201.78-26.95 202.01-28.03 202.23-29.1 202.48-30.35L202.48-30.35Q201.28-29.4 199.63-27.33 197.98-25.25 196.16-22.43 194.33-19.6 192.51-16.23 190.68-12.85 189.18-9.38 187.68-5.9 186.61-2.5 185.53 0.9 185.28 3.8L185.28 3.8Q182.88 3.1 181.96 2.4 181.03 1.7 181.03 0.7L181.03 0.7Q181.03-0.2 181.58-1.85 182.13-3.5 183.13-5.75 184.13-8 185.58-10.78 187.03-13.55 188.78-16.75L188.78-16.75Q190.78-20.4 192.71-23.6 194.63-26.8 196.48-29.4 198.33-32 200.11-33.9 201.88-35.8 203.63-36.8L203.63-36.8Q204.33-36.8 205.51-36.45 206.68-36.1 207.81-35.6 208.93-35.1 209.81-34.58 210.68-34.05 210.78-33.7L210.78-33.7Q210.08-32.3 209.13-29.5 208.18-26.7 207.21-23.15 206.23-19.6 205.36-15.63 204.48-11.65 203.98-8L203.98-8Q205.13-10.75 206.66-13.73 208.18-16.7 209.88-19.63 211.58-22.55 213.36-25.3 215.13-28.05 216.83-30.33 218.53-32.6 220.01-34.3 221.48-36 222.63-36.8L222.63-36.8Q223.33-36.8 224.51-36.45 225.68-36.1 226.81-35.6 227.93-35.1 228.81-34.58 229.68-34.05 229.78-33.7L229.78-33.7Q228.18-30.85 226.98-26.75 225.78-22.65 224.96-18.15 224.13-13.65 223.71-9.22 223.28-4.8 223.28-1.3L223.28-1.3Q223.28-0.15 223.28 1.1 223.28 2.35 223.38 3.7L223.38 3.7Q222.68 3.7 221.71 3.53 220.73 3.35 219.81 3.05 218.88 2.75 218.13 2.38 217.38 2 217.08 1.55L217.08 1.55Q217.03 0.85 217.03 0.1 217.03-0.65 217.03-1.35L217.03-1.35Q217.03-6.95 217.86-13.05 218.68-19.15 220.58-26.25L220.58-26.25Q220.78-26.95 221.03-28.15 221.28-29.35 221.53-30.65L221.53-30.65Q220.13-29.95 218.36-27.98 216.58-26 214.76-23.18 212.93-20.35 211.16-16.9 209.38-13.45 207.96-9.88 206.53-6.3 205.56-2.78 204.58 0.75 204.38 3.7ZM235.18 1.75L235.18 1.75Q232.33 1.45 230.63-0.75 228.93-2.95 228.93-6.35L228.93-6.35Q228.93-8.35 229.53-10.5 230.13-12.65 231.23-14.68 232.33-16.7 233.83-18.5 235.33-20.3 237.08-21.6L237.08-21.6Q239.83-23.65 242.23-23.65L242.23-23.65Q243.83-22.8 245.38-20.1L245.38-20.1Q245.63-20.1 245.83-20.13 246.03-20.15 246.28-20.15L246.28-20.15Q248.93-20.15 248.93-15.45L248.93-15.45Q248.93-12.3 247.9-9.47 246.88-6.65 245.05-4.35 243.23-2.05 240.7-0.48 238.18 1.1 235.18 1.75ZM237.73-14L237.73-14Q236.88-12.85 236.13-11.5 235.38-10.15 234.83-8.78 234.28-7.4 233.98-6.13 233.68-4.85 233.68-3.85L233.68-3.85Q233.68-2.65 234.08-1.55 234.48-0.45 234.98-0.3L234.98-0.3Q237.23-0.8 239.1-2.18 240.98-3.55 242.35-5.6 243.73-7.65 244.5-10.25 245.28-12.85 245.28-15.8L245.28-15.8Q245.28-17.1 245.13-17.85 244.98-18.6 244.63-19.15L244.63-19.15Q242.43-18.5 240.7-17.05 238.98-15.6 237.73-14ZM262.23-23.35L262.23-23.35Q263.23-23.35 264.53-22.75 265.83-22.15 266.83-21.2L266.83-21.2Q266.58-23.2 266.2-24.98 265.83-26.75 265.1-28.65 264.38-30.55 263.18-32.8 261.98-35.05 260.18-37.95L260.18-37.95Q260.33-38.4 260.85-39 261.38-39.6 262.05-40.13 262.73-40.65 263.45-41.05 264.18-41.45 264.83-41.55L264.83-41.55Q266.23-40 267.48-37.68 268.73-35.35 269.68-32.68 270.63-30 271.15-27.15 271.68-24.3 271.68-21.7L271.68-21.7Q271.68-19.1 271.1-16.35 270.53-13.6 269.5-10.98 268.48-8.35 267.13-6 265.78-3.65 264.2-1.8 262.63 0.05 260.93 1.23 259.23 2.4 257.53 2.7L257.53 2.7Q254.08 2.3 252.25 0.48 250.43-1.35 250.43-4.55L250.43-4.55Q250.43-6.25 250.95-8.25 251.48-10.25 252.35-12.23 253.23-14.2 254.4-16.07 255.58-17.95 256.9-19.45 258.23-20.95 259.58-22 260.93-23.05 262.23-23.35ZM257.13 0.7L257.13 0.7Q258.88 0.1 260.63-1.95 262.38-4 263.78-6.78 265.18-9.55 266.05-12.73 266.93-15.9 266.93-18.85L266.93-18.85Q266.93-19.7 266.93-19.9 266.93-20.1 266.88-20.3L266.88-20.3Q265.68-19.8 264.33-18.6 262.98-17.4 261.63-15.83 260.28-14.25 259.08-12.4 257.88-10.55 256.93-8.7 255.98-6.85 255.43-5.15 254.88-3.45 254.88-2.15L254.88-2.15Q254.88 0.35 257.13 0.7ZM283.87-23.35L283.87-23.35Q284.87-23.35 286.17-22.75 287.47-22.15 288.47-21.2L288.47-21.2Q288.22-23.2 287.85-24.98 287.47-26.75 286.75-28.65 286.02-30.55 284.82-32.8 283.62-35.05 281.82-37.95L281.82-37.95Q281.97-38.4 282.5-39 283.02-39.6 283.7-40.13 284.37-40.65 285.1-41.05 285.82-41.45 286.47-41.55L286.47-41.55Q287.87-40 289.12-37.68 290.37-35.35 291.32-32.68 292.27-30 292.8-27.15 293.32-24.3 293.32-21.7L293.32-21.7Q293.32-19.1 292.75-16.35 292.17-13.6 291.15-10.98 290.12-8.35 288.77-6 287.42-3.65 285.85-1.8 284.27 0.05 282.57 1.23 280.87 2.4 279.17 2.7L279.17 2.7Q275.72 2.3 273.9 0.48 272.07-1.35 272.07-4.55L272.07-4.55Q272.07-6.25 272.6-8.25 273.12-10.25 274-12.23 274.87-14.2 276.05-16.07 277.22-17.95 278.55-19.45 279.87-20.95 281.22-22 282.57-23.05 283.87-23.35ZM278.77 0.7L278.77 0.7Q280.52 0.1 282.27-1.95 284.02-4 285.42-6.78 286.82-9.55 287.7-12.73 288.57-15.9 288.57-18.85L288.57-18.85Q288.57-19.7 288.57-19.9 288.57-20.1 288.52-20.3L288.52-20.3Q287.32-19.8 285.97-18.6 284.62-17.4 283.27-15.83 281.92-14.25 280.72-12.4 279.52-10.55 278.57-8.7 277.62-6.85 277.07-5.15 276.52-3.45 276.52-2.15L276.52-2.15Q276.52 0.35 278.77 0.7ZM294.67-3.35L294.67-3.35Q294.67-3.8 294.75-4.48 294.82-5.15 295.02-6.28 295.22-7.4 295.55-9 295.87-10.6 296.37-12.85L296.37-12.85Q296.47-13.35 296.82-14.45 297.17-15.55 297.75-16.78 298.32-18 299.15-19.15 299.97-20.3 301.12-20.85L301.12-20.85Q301.97-20.65 303.37-19.83 304.77-19 305.77-17.55L305.77-17.55Q304.62-16.25 303.85-14.95 303.07-13.65 302.45-12.25 301.82-10.85 301.3-9.35 300.77-7.85 300.12-6.2L300.12-6.2Q299.57-4.8 299.12-3.33 298.67-1.85 298.62-0.75L298.62-0.75Q298.62 0.15 298.6 0.53 298.57 0.9 298.32 0.9L298.32 0.9Q298.12 0.9 297.52 0.65 296.92 0.4 296.3-0.13 295.67-0.65 295.17-1.45 294.67-2.25 294.67-3.35ZM304.22-25.05L304.22-25.05Q304.22-25.35 304.37-25.95L304.37-25.95Q304.12-26.2 303.95-26.7 303.77-27.2 303.77-27.6L303.77-27.6Q303.77-28.05 303.9-28.83 304.02-29.6 304.22-30.5 304.42-31.4 304.72-32.38 305.02-33.35 305.32-34.15L305.32-34.15Q305.92-34.15 306.8-33.83 307.67-33.5 308.57-32.98 309.47-32.45 310.22-31.83 310.97-31.2 311.37-30.65L311.37-30.65Q310.82-30.1 309.92-29.13 309.02-28.15 308.17-27.08 307.32-26 306.62-25.05 305.92-24.1 305.72-23.7L305.72-23.7Q305.12-23.8 304.67-24.23 304.22-24.65 304.22-25.05ZM314.52-24.25L314.52-24.25Q315.82-23.85 316.97-22.48 318.12-21.1 318.67-19.45L318.67-19.45Q318.12-18.1 316.97-16.2 315.82-14.3 314.67-12.33 313.52-10.35 312.59-8.58 311.67-6.8 311.52-5.65L311.52-5.65Q312.32-6.5 313.29-7.63 314.27-8.75 315.19-9.88 316.12-11 316.92-11.93 317.72-12.85 318.17-13.3L318.17-13.3Q319.12-14.3 320.42-15.63 321.72-16.95 323.14-18.13 324.57-19.3 326.02-20.13 327.47-20.95 328.67-20.95L328.67-20.95Q329.97-20.95 330.84-20.08 331.72-19.2 332.22-18.25L332.22-18.25Q332.22-18.15 331.84-17.98 331.47-17.8 330.77-17L330.77-17Q330.07-16.1 329.19-14.53 328.32-12.95 327.49-11.13 326.67-9.3 326.12-7.4 325.57-5.5 325.57-3.95L325.57-3.95Q325.57-2.7 325.89-2.35 326.22-2 326.82-2L326.82-2Q327.37-2 327.97-2.25 328.57-2.5 328.92-2.5L328.92-2.5Q329.12-2.4 329.24-2.08 329.37-1.75 329.37-1.5L329.37-1.5Q328.97-1.15 328.42-0.8 327.87-0.45 327.27-0.15 326.67 0.15 326.09 0.35 325.52 0.55 325.07 0.55L325.07 0.55Q323.62 0.55 322.69 0.13 321.77-0.3 321.24-1 320.72-1.7 320.52-2.68 320.32-3.65 320.32-4.75L320.32-4.75Q320.32-5.35 320.42-6.1 320.52-6.85 320.82-7.88 321.12-8.9 321.67-10.33 322.22-11.75 323.07-13.75L323.07-13.75Q322.97-13.75 321.72-13.05 320.47-12.35 319.02-10.9L319.02-10.9Q316.67-8.65 314.79-6.45 312.92-4.25 310.97-1.55L310.97-1.55Q309.87 0 309.04 1.07 308.22 2.15 307.62 2.5L307.62 2.5Q306.57 1.9 306.07 0.83 305.57-0.25 305.32-1.4L305.32-1.4Q305.32-2.35 305.59-3.8 305.87-5.25 306.34-7.03 306.82-8.8 307.52-10.75 308.22-12.7 309.07-14.65L309.07-14.65Q310.97-19.05 312.54-21.55 314.12-24.05 314.52-24.25ZM323.32 14.9L323.32 14.9Q323.32 14.6 323.52 14.35 323.72 14.1 323.97 13.85L323.97 13.85Q324.57 14.4 324.99 14.7 325.42 15 325.79 15.2 326.17 15.4 326.57 15.45 326.97 15.5 327.52 15.5L327.52 15.5Q330.12 15.5 332.47 14.13 334.82 12.75 336.89 10.15 338.97 7.55 340.67 3.8 342.37 0.05 343.67-4.7L343.67-4.7Q343.07-4.1 342.19-3.38 341.32-2.65 340.37-2 339.42-1.35 338.49-0.8 337.57-0.25 336.92 0L336.92 0Q336.07-0.15 335.34-0.73 334.62-1.3 334.07-2.15 333.52-3 333.22-4.08 332.92-5.15 332.92-6.35L332.92-6.35Q332.92-8.3 333.64-10.35 334.37-12.4 335.57-14.38 336.77-16.35 338.39-18.1 340.02-19.85 341.84-21.15 343.67-22.45 345.54-23.23 347.42-24 349.22-24L349.22-24Q350.97-24 351.84-23.28 352.72-22.55 353.12-20.8L353.12-20.8Q352.57-21.1 351.72-21.1L351.72-21.1Q350.52-21.1 348.94-20.15 347.37-19.2 345.74-17.68 344.12-16.15 342.52-14.18 340.92-12.2 339.69-10.15 338.47-8.1 337.69-6.15 336.92-4.2 336.92-2.65L336.92-2.65Q336.92-2.3 336.97-2.23 337.02-2.15 337.12-2.15L337.12-2.15Q337.57-2.15 338.34-2.65 339.12-3.15 340.09-3.93 341.07-4.7 342.12-5.73 343.17-6.75 344.12-7.8L344.12-7.8Q346.27-10.2 348.04-13.18 349.82-16.15 350.87-18.95L350.87-18.95Q352.22-18.85 353.27-18.5 354.32-18.15 354.72-17.75L354.72-17.75Q353.02-13.85 351.99-11.2 350.97-8.55 350.22-6.5L350.22-6.5Q348.87-2.9 347.69 0.08 346.52 3.05 345.29 5.58 344.07 8.1 342.64 10.28 341.22 12.45 339.42 14.45L339.42 14.45Q338.57 15.4 337.49 16.13 336.42 16.85 335.29 17.35 334.17 17.85 333.09 18.1 332.02 18.35 331.12 18.35L331.12 18.35Q329.92 18.35 328.67 18.07 327.42 17.8 326.34 17.32 325.27 16.85 324.47 16.23 323.67 15.6 323.32 14.9Z" opacity="1" transform="matrix(1,0,0,1,0,0)" fill="white" class="wordmark-text-0" id="SvgjsPath1260"></path></svg></g></svg></g><g transform="matrix(1,0,0,1,245.2224,82.7484529337327)"><svg viewBox="0 0 150.2976 26.26999738824711" height="26.26999738824711" width="150.2976"><g transform="matrix(1,0,0,1,0,0)"><svg width="150.2976" viewBox="2.7 -34.3 199.08 34.8" height="26.26999738824711" data-palette-color="url(#3662751a-e89c-4179-8d09-cd857f44ffa1)"><path d="M9.05-30.4Q7.85-30.4 7.25-29.8L7.25-29.8Q6.9-29.6 6.65-29.15 6.4-28.7 6.3-28.2L6.3-28.2 2.7-28.45Q2.9-29.95 3.43-31.08 3.95-32.2 4.95-33.1L4.95-33.1Q6.7-34.3 9.4-34.3L9.4-34.3 31.2-34.3 30.7-30.5 12.95-30.5 11.55-20.05 23.7-20.05 23.2-16.25 11.05-16.25 9.4-3.75 27.15-3.75 26.65 0.05 4.95 0.05 9.05-30.4ZM39.9 0.5Q34.5 0.5 30.9-3.75L30.9-3.75 33.45-6.4Q35-4.75 36.55-4 38.1-3.25 39.9-3.25L39.9-3.25Q42.35-3.25 43.95-4.38 45.55-5.5 45.8-7.5L45.8-7.5 45.85-8Q45.85-8.9 45.35-9.5 44.85-10.1 43.95-10.58 43.05-11.05 40.9-12L40.9-12Q37.45-13.4 35.87-14.7 34.3-16 34.3-18.35L34.3-18.35Q34.3-20.6 35.4-22.33 36.5-24.05 38.42-25.03 40.35-26 42.7-26L42.7-26Q44.75-26 46.7-25.3 48.65-24.6 49.7-23.55L49.7-23.55 47.75-20.7Q45.85-22.3 42.95-22.3L42.95-22.3Q40.9-22.3 39.62-21.35 38.35-20.4 38.35-18.85L38.35-18.85Q38.35-18.05 38.85-17.45 39.35-16.85 40.05-16.48 40.75-16.1 42.5-15.25L42.5-15.25Q46.45-13.6 48.15-12.18 49.85-10.75 49.85-8.35L49.85-8.35Q49.85-5.75 48.52-3.75 47.2-1.75 44.92-0.63 42.65 0.5 39.9 0.5L39.9 0.5ZM60.45 0.5Q57.4 0.5 55.87-1.18 54.34-2.85 54.34-5.85L54.34-5.85Q54.34-6.7 54.5-7.65L54.5-7.65 57.59-31.45 61.59-31.45 60.75-25 68.15-25 67.7-21.3 60.25-21.3 58.45-7.45Q58.34-6.65 58.34-6.3L58.34-6.3Q58.34-4.95 58.87-4.13 59.4-3.3 60.55-3.3L60.55-3.3Q62-3.3 63.15-4.15 64.3-5 65-6.45L65-6.45 67.9-4.2Q65 0.5 60.45 0.5L60.45 0.5ZM74.54 0.2Q73.59 0.2 72.89-0.53 72.19-1.25 72.19-2.25L72.19-2.25Q72.19-3.3 73.02-4.17 73.84-5.05 74.84-5.05L74.84-5.05Q75.84-5.05 76.57-4.3 77.29-3.55 77.29-2.55L77.29-2.55Q77.29-1.5 76.42-0.65 75.54 0.2 74.54 0.2L74.54 0.2ZM97.19-1.35Q97.64-4.85 99.96-7.78 102.29-10.7 107.24-14.3L107.24-14.3 108.39-15.05Q110.79-16.65 112.26-17.8 113.74-18.95 114.89-20.53 116.04-22.1 116.34-24.05L116.34-24.05Q116.39-24.35 116.39-24.9L116.39-24.9Q116.39-26.9 115.11-28.05 113.84-29.2 111.49-29.2L111.49-29.2Q108.64-29.2 106.46-27.53 104.29-25.85 103.29-22.95L103.29-22.95 100.14-24.95Q101.89-28.85 104.84-30.88 107.79-32.9 111.69-32.9L111.69-32.9Q115.79-32.9 118.06-30.83 120.34-28.75 120.34-25.15L120.34-25.15Q120.34-24.7 120.24-23.6L120.24-23.6Q119.89-20.95 118.64-18.95 117.39-16.95 115.69-15.53 113.99-14.1 111.09-12.05L111.09-12.05Q108.99-10.65 107.34-9.3L107.34-9.3Q105.29-7.85 103.99-6.58 102.69-5.3 101.94-3.65L101.94-3.65 119.19-3.75 118.69 0.05 96.99 0.05 97.19-1.35ZM135.69 0.45Q131.99 0.45 129.39-1.45 126.79-3.35 125.49-6.53 124.19-9.7 124.19-13.5L124.19-13.5Q124.19-15.15 124.39-16.4L124.39-16.4Q124.99-20.7 127.06-24.48 129.14-28.25 132.41-30.55 135.69-32.85 139.74-32.85L139.74-32.85Q143.39-32.85 145.96-30.95 148.54-29.05 149.84-25.88 151.14-22.7 151.14-18.85L151.14-18.85Q151.14-17.2 150.94-15.85L150.94-15.85Q150.39-11.55 148.31-7.8 146.24-4.05 142.96-1.8 139.69 0.45 135.69 0.45L135.69 0.45ZM135.89-3.3Q138.94-3.3 141.31-5.18 143.69-7.05 145.14-10.05 146.59-13.05 147.04-16.45L147.04-16.45Q147.24-18.25 147.24-19.1L147.24-19.1Q147.24-23.4 145.26-26.23 143.29-29.05 139.59-29.05L139.59-29.05Q136.59-29.05 134.19-27.23 131.78-25.4 130.28-22.4 128.78-19.4 128.34-16L128.34-16Q128.19-14.75 128.19-13.45L128.19-13.45Q128.19-9.05 130.14-6.18 132.09-3.3 135.89-3.3L135.89-3.3ZM152.33-1.35Q152.78-4.85 155.11-7.78 157.43-10.7 162.38-14.3L162.38-14.3 163.53-15.05Q165.93-16.65 167.41-17.8 168.88-18.95 170.03-20.53 171.18-22.1 171.48-24.05L171.48-24.05Q171.53-24.35 171.53-24.9L171.53-24.9Q171.53-26.9 170.26-28.05 168.98-29.2 166.63-29.2L166.63-29.2Q163.78-29.2 161.61-27.53 159.43-25.85 158.43-22.95L158.43-22.95 155.28-24.95Q157.03-28.85 159.98-30.88 162.93-32.9 166.83-32.9L166.83-32.9Q170.93-32.9 173.21-30.83 175.48-28.75 175.48-25.15L175.48-25.15Q175.48-24.7 175.38-23.6L175.38-23.6Q175.03-20.95 173.78-18.95 172.53-16.95 170.83-15.53 169.13-14.1 166.23-12.05L166.23-12.05Q164.13-10.65 162.48-9.3L162.48-9.3Q160.43-7.85 159.13-6.58 157.83-5.3 157.08-3.65L157.08-3.65 174.33-3.75 173.83 0.05 152.13 0.05 152.33-1.35ZM192.53 0.15L193.33-6.1 178.43-6.1 178.78-9.15 191.68-32.6 195.98-32.6 183.53-9.9 193.83-9.9 195.28-20.75 199.28-20.75 197.83-9.9 201.78-9.9 201.28-6.1 197.33-6.1 196.53 0.15 192.53 0.15Z" opacity="1" transform="matrix(1,0,0,1,0,0)" fill="black" class="slogan-text-1" id="SvgjsPath1259"></path></svg></g></svg></g></svg></g></svg></g><g></g></svg></g></svg></g></svg></g><defs><mask></mask></defs></svg><rect width="395.52" height="109.0184503219798" fill="black" stroke="none" visibility="hidden"></rect></g></mask><linearGradient x1="0.054" x2="0.941" y1="0.5" y2="0.5" id="d129b765-3956-4fd0-910e-07585f65ab38"><stop stop-color="#9c7945" offset="0"></stop><stop stop-color="#faf3aa" offset="0.498"></stop><stop stop-color="#9c7945" offset="1"></stop></linearGradient><rect width="395.52" height="109.0184503219798" fill="url(#d129b765-3956-4fd0-910e-07585f65ab38)" mask="url(#9fc47c8b-a423-472b-a7da-54941ab2510b)" data-fill-palette-color="primary"></rect><mask id="9a283e36-8102-4525-bbb6-0adba11bcb7a"><g id="SvgjsG1272"><svg viewBox="0 0 395.52 109.0184503219798" height="109.0184503219798" width="395.52"><g><svg viewBox="0 0 395.52 109.0184503219798" height="109.0184503219798" width="395.52"><g><svg viewBox="0 0 395.52 109.0184503219798" height="109.0184503219798" width="395.52"><g><svg viewBox="0 0 395.52 109.0184503219798" height="109.0184503219798" width="395.52"><g><svg viewBox="0 0 395.52 109.0184503219798" height="109.0184503219798" width="395.52"><g id="SvgjsG1271"><svg viewBox="0 0 395.52 109.0184503219798" height="109.0184503219798" width="395.52" id="SvgjsSvg1270"><g><svg viewBox="0 0 395.52 66.94447018931902" height="66.94447018931902" width="395.52"><g transform="matrix(1,0,0,1,0,0)"><svg width="395.52" viewBox="0.85 -41.55 353.87 59.9" height="66.94447018931902" data-palette-color="url(#d129b765-3956-4fd0-910e-07585f65ab38)"></svg></g></svg></g><g transform="matrix(1,0,0,1,245.2224,82.7484529337327)"><svg viewBox="0 0 150.2976 26.26999738824711" height="26.26999738824711" width="150.2976"><g transform="matrix(1,0,0,1,0,0)"><svg width="150.2976" viewBox="2.7 -34.3 199.08 34.8" height="26.26999738824711" data-palette-color="url(#3662751a-e89c-4179-8d09-cd857f44ffa1)"><path d="M9.05-30.4Q7.85-30.4 7.25-29.8L7.25-29.8Q6.9-29.6 6.65-29.15 6.4-28.7 6.3-28.2L6.3-28.2 2.7-28.45Q2.9-29.95 3.43-31.08 3.95-32.2 4.95-33.1L4.95-33.1Q6.7-34.3 9.4-34.3L9.4-34.3 31.2-34.3 30.7-30.5 12.95-30.5 11.55-20.05 23.7-20.05 23.2-16.25 11.05-16.25 9.4-3.75 27.15-3.75 26.65 0.05 4.95 0.05 9.05-30.4ZM39.9 0.5Q34.5 0.5 30.9-3.75L30.9-3.75 33.45-6.4Q35-4.75 36.55-4 38.1-3.25 39.9-3.25L39.9-3.25Q42.35-3.25 43.95-4.38 45.55-5.5 45.8-7.5L45.8-7.5 45.85-8Q45.85-8.9 45.35-9.5 44.85-10.1 43.95-10.58 43.05-11.05 40.9-12L40.9-12Q37.45-13.4 35.87-14.7 34.3-16 34.3-18.35L34.3-18.35Q34.3-20.6 35.4-22.33 36.5-24.05 38.42-25.03 40.35-26 42.7-26L42.7-26Q44.75-26 46.7-25.3 48.65-24.6 49.7-23.55L49.7-23.55 47.75-20.7Q45.85-22.3 42.95-22.3L42.95-22.3Q40.9-22.3 39.62-21.35 38.35-20.4 38.35-18.85L38.35-18.85Q38.35-18.05 38.85-17.45 39.35-16.85 40.05-16.48 40.75-16.1 42.5-15.25L42.5-15.25Q46.45-13.6 48.15-12.18 49.85-10.75 49.85-8.35L49.85-8.35Q49.85-5.75 48.52-3.75 47.2-1.75 44.92-0.63 42.65 0.5 39.9 0.5L39.9 0.5ZM60.45 0.5Q57.4 0.5 55.87-1.18 54.34-2.85 54.34-5.85L54.34-5.85Q54.34-6.7 54.5-7.65L54.5-7.65 57.59-31.45 61.59-31.45 60.75-25 68.15-25 67.7-21.3 60.25-21.3 58.45-7.45Q58.34-6.65 58.34-6.3L58.34-6.3Q58.34-4.95 58.87-4.13 59.4-3.3 60.55-3.3L60.55-3.3Q62-3.3 63.15-4.15 64.3-5 65-6.45L65-6.45 67.9-4.2Q65 0.5 60.45 0.5L60.45 0.5ZM74.54 0.2Q73.59 0.2 72.89-0.53 72.19-1.25 72.19-2.25L72.19-2.25Q72.19-3.3 73.02-4.17 73.84-5.05 74.84-5.05L74.84-5.05Q75.84-5.05 76.57-4.3 77.29-3.55 77.29-2.55L77.29-2.55Q77.29-1.5 76.42-0.65 75.54 0.2 74.54 0.2L74.54 0.2ZM97.19-1.35Q97.64-4.85 99.96-7.78 102.29-10.7 107.24-14.3L107.24-14.3 108.39-15.05Q110.79-16.65 112.26-17.8 113.74-18.95 114.89-20.53 116.04-22.1 116.34-24.05L116.34-24.05Q116.39-24.35 116.39-24.9L116.39-24.9Q116.39-26.9 115.11-28.05 113.84-29.2 111.49-29.2L111.49-29.2Q108.64-29.2 106.46-27.53 104.29-25.85 103.29-22.95L103.29-22.95 100.14-24.95Q101.89-28.85 104.84-30.88 107.79-32.9 111.69-32.9L111.69-32.9Q115.79-32.9 118.06-30.83 120.34-28.75 120.34-25.15L120.34-25.15Q120.34-24.7 120.24-23.6L120.24-23.6Q119.89-20.95 118.64-18.95 117.39-16.95 115.69-15.53 113.99-14.1 111.09-12.05L111.09-12.05Q108.99-10.65 107.34-9.3L107.34-9.3Q105.29-7.85 103.99-6.58 102.69-5.3 101.94-3.65L101.94-3.65 119.19-3.75 118.69 0.05 96.99 0.05 97.19-1.35ZM135.69 0.45Q131.99 0.45 129.39-1.45 126.79-3.35 125.49-6.53 124.19-9.7 124.19-13.5L124.19-13.5Q124.19-15.15 124.39-16.4L124.39-16.4Q124.99-20.7 127.06-24.48 129.14-28.25 132.41-30.55 135.69-32.85 139.74-32.85L139.74-32.85Q143.39-32.85 145.96-30.95 148.54-29.05 149.84-25.88 151.14-22.7 151.14-18.85L151.14-18.85Q151.14-17.2 150.94-15.85L150.94-15.85Q150.39-11.55 148.31-7.8 146.24-4.05 142.96-1.8 139.69 0.45 135.69 0.45L135.69 0.45ZM135.89-3.3Q138.94-3.3 141.31-5.18 143.69-7.05 145.14-10.05 146.59-13.05 147.04-16.45L147.04-16.45Q147.24-18.25 147.24-19.1L147.24-19.1Q147.24-23.4 145.26-26.23 143.29-29.05 139.59-29.05L139.59-29.05Q136.59-29.05 134.19-27.23 131.78-25.4 130.28-22.4 128.78-19.4 128.34-16L128.34-16Q128.19-14.75 128.19-13.45L128.19-13.45Q128.19-9.05 130.14-6.18 132.09-3.3 135.89-3.3L135.89-3.3ZM152.33-1.35Q152.78-4.85 155.11-7.78 157.43-10.7 162.38-14.3L162.38-14.3 163.53-15.05Q165.93-16.65 167.41-17.8 168.88-18.95 170.03-20.53 171.18-22.1 171.48-24.05L171.48-24.05Q171.53-24.35 171.53-24.9L171.53-24.9Q171.53-26.9 170.26-28.05 168.98-29.2 166.63-29.2L166.63-29.2Q163.78-29.2 161.61-27.53 159.43-25.85 158.43-22.95L158.43-22.95 155.28-24.95Q157.03-28.85 159.98-30.88 162.93-32.9 166.83-32.9L166.83-32.9Q170.93-32.9 173.21-30.83 175.48-28.75 175.48-25.15L175.48-25.15Q175.48-24.7 175.38-23.6L175.38-23.6Q175.03-20.95 173.78-18.95 172.53-16.95 170.83-15.53 169.13-14.1 166.23-12.05L166.23-12.05Q164.13-10.65 162.48-9.3L162.48-9.3Q160.43-7.85 159.13-6.58 157.83-5.3 157.08-3.65L157.08-3.65 174.33-3.75 173.83 0.05 152.13 0.05 152.33-1.35ZM192.53 0.15L193.33-6.1 178.43-6.1 178.78-9.15 191.68-32.6 195.98-32.6 183.53-9.9 193.83-9.9 195.28-20.75 199.28-20.75 197.83-9.9 201.78-9.9 201.28-6.1 197.33-6.1 196.53 0.15 192.53 0.15Z" opacity="1" transform="matrix(1,0,0,1,0,0)" fill="white" class="slogan-text-1" id="SvgjsPath1269"></path></svg></g></svg></g></svg></g></svg></g><g></g></svg></g></svg></g></svg></g><defs><mask></mask></defs><mask><g id="SvgjsG1268"><svg viewBox="0 0 395.52 109.0184503219798" height="109.0184503219798" width="395.52"><g><svg viewBox="0 0 395.52 109.0184503219798" height="109.0184503219798" width="395.52"><g><svg viewBox="0 0 395.52 109.0184503219798" height="109.0184503219798" width="395.52"><g><svg viewBox="0 0 395.52 109.0184503219798" height="109.0184503219798" width="395.52"><g><svg viewBox="0 0 395.52 109.0184503219798" height="109.0184503219798" width="395.52"><g id="SvgjsG1267"><svg viewBox="0 0 395.52 109.0184503219798" height="109.0184503219798" width="395.52" id="SvgjsSvg1266"><g><svg viewBox="0 0 395.52 66.94447018931902" height="66.94447018931902" width="395.52"><g transform="matrix(1,0,0,1,0,0)"><svg width="395.52" viewBox="0.85 -41.55 353.87 59.9" height="66.94447018931902" data-palette-color="url(#d129b765-3956-4fd0-910e-07585f65ab38)"><path d="M23.8-36.95L23.8-36.95Q25.7-36.95 27.75-36.25 29.8-35.55 31.35-34.45L31.35-34.45Q30.85-31.9 30.43-29.85 30-27.8 29.65-26.13 29.3-24.45 28.98-23.08 28.65-21.7 28.35-20.5L28.35-20.5Q27.15-16 25.88-12.38 24.6-8.75 23.18-5.85 21.75-2.95 20.18-0.7 18.6 1.55 16.8 3.25L16.8 3.25Q15.05 4.9 13.3 5.95 11.55 7 10.05 7.3L10.05 7.3Q8.05 7.3 6.35 6.85 4.65 6.4 3.43 5.63 2.2 4.85 1.53 3.78 0.85 2.7 0.85 1.4L0.85 1.4Q0.85 0 1.55-2.13 2.25-4.25 3.7-7.15L3.7-7.15Q4.3-7.1 5.1-6.85 5.9-6.6 6.7-6.25 7.5-5.9 8.15-5.48 8.8-5.05 9.1-4.65L9.1-4.65Q7.5-3 6.5-1.03 5.5 0.95 5.5 2.4L5.5 2.4Q5.5 3.25 5.83 3.93 6.15 4.6 6.95 5.15L6.95 5.15Q10 4 12.9 0.88 15.8-2.25 18.05-6.9L18.05-6.9Q19.4-9.65 20.5-13.2 21.6-16.75 22.38-20.33 23.15-23.9 23.58-27.18 24-30.45 24-32.7L24-32.7Q24-33.05 23.98-33.68 23.95-34.3 23.93-34.98 23.9-35.65 23.85-36.2 23.8-36.75 23.8-36.95ZM64.65-27.55L64.65-27.55Q64.65-25.15 63.57-23.03 62.5-20.9 60.6-19.23 58.7-17.55 56.15-16.4 53.6-15.25 50.6-14.85L50.6-14.85Q51.35-12.6 52.42-10.23 53.5-7.85 54.75-5.65 56-3.45 57.35-1.6 58.7 0.25 60 1.45L60 1.45Q59.75 1.95 59.27 2.45 58.8 2.95 58.17 3.38 57.55 3.8 56.87 4.08 56.2 4.35 55.6 4.35L55.6 4.35Q54.5 4.35 53.5 3.3 52.5 2.25 51.47-0.03 50.45-2.3 49.32-5.93 48.2-9.55 46.85-14.65L46.85-14.65Q46.3-14.65 45.75-14.65 45.2-14.65 44.9-14.75L44.9-14.75Q44.55-14.95 44.15-15.45L44.15-15.45Q42.8-12.55 41.75-10 40.7-7.45 39.87-5.08 39.05-2.7 38.42-0.48 37.8 1.75 37.35 4.05L37.35 4.05Q35.65 3.65 34.4 2.6 33.15 1.55 32.05-0.35L32.05-0.35Q32.25-0.8 32.47-1.23 32.7-1.65 33.05-2.43 33.4-3.2 33.92-4.4 34.45-5.6 35.32-7.6 36.2-9.6 37.42-12.5 38.65-15.4 40.4-19.55L40.4-19.55Q41.2-21.4 41.77-22.8 42.35-24.2 42.8-25.48 43.25-26.75 43.62-28.03 44-29.3 44.4-30.95L44.4-30.95Q42.1-30.15 40.12-29.18 38.15-28.2 36.85-27.1L36.85-27.1Q36.4-27.4 35.92-28 35.45-28.6 35.05-29.33 34.65-30.05 34.35-30.8 34.05-31.55 34-32.15L34-32.15Q35.5-33.15 37.67-34 39.85-34.85 42.3-35.48 44.75-36.1 47.3-36.45 49.85-36.8 52.05-36.8L52.05-36.8Q58.05-36.8 61.35-34.33 64.65-31.85 64.65-27.55ZM51.85-32.7L52.45-31.75Q52.1-31.3 51.35-29.95 50.6-28.6 49.62-26.73 48.65-24.85 47.57-22.65 46.5-20.45 45.5-18.3L45.5-18.3Q49.25-18.3 52.4-19 55.55-19.7 57.85-20.98 60.15-22.25 61.42-23.98 62.7-25.7 62.7-27.8L62.7-27.8Q62.7-30.3 60.9-31.63 59.1-32.95 55.35-32.95L55.35-32.95Q54.5-32.95 53.65-32.88 52.8-32.8 51.85-32.7L51.85-32.7ZM73.05-30.3L73.05-30.3Q71.05-30.3 69.97-31.43 68.9-32.55 68.9-34.15L68.9-34.15Q68.9-34.55 69.02-35.1 69.15-35.65 69.35-36.05L69.35-36.05Q70-35.75 71.27-35.63 72.55-35.5 74.25-35.5L74.25-35.5Q76.8-35.5 80.02-35.73 83.25-35.95 86.2-36.2 89.15-36.45 91.4-36.68 93.65-36.9 94.3-36.9L94.3-36.9Q96.15-36.9 96.97-35.52 97.8-34.15 98.2-31.85L98.2-31.85Q96.9-31.95 95.62-32.02 94.35-32.1 93.45-32.1L93.45-32.1Q91.85-32.1 90.22-32 88.6-31.9 86.95-31.7L86.95-31.7Q86.25-30.25 85.4-28.28 84.55-26.3 83.72-24.15 82.9-22 82.15-19.88 81.4-17.75 80.85-16.05L80.85-16.05Q79.75-12.75 78.92-9.95 78.1-7.15 77.47-4.73 76.85-2.3 76.4-0.1 75.95 2.1 75.6 4.2L75.6 4.2Q72.25 3.7 70 0L70 0Q70.4-1.55 70.97-3.38 71.55-5.2 72.32-7.53 73.1-9.85 74.15-12.8 75.2-15.75 76.55-19.5L76.55-19.5Q77.05-20.9 77.6-22.43 78.15-23.95 78.67-25.45 79.2-26.95 79.62-28.35 80.05-29.75 80.35-30.9L80.35-30.9Q78.25-30.65 76.37-30.48 74.5-30.3 73.05-30.3ZM104.59-20.7L104.59-20.7Q104.39-17.6 103.49-15.38 102.59-13.15 100.92-11.48 99.24-9.8 96.84-8.45 94.44-7.1 91.24-5.85L91.24-5.85Q91.24-5.55 91.22-5.23 91.19-4.9 91.19-4.55L91.19-4.55Q91.19-3.9 91.29-3.2 91.39-2.5 91.64-1.9 91.89-1.3 92.34-0.93 92.79-0.55 93.49-0.55L93.49-0.55Q94.84-0.55 96.14-1.15 97.44-1.75 98.62-2.63 99.79-3.5 100.82-4.53 101.84-5.55 102.64-6.4L102.64-6.4Q103.14-5.95 103.49-5.55L103.49-5.55Q101.24-2.55 98.57-0.58 95.89 1.4 93.49 1.95L93.49 1.95Q90.04 1.55 88.12-0.58 86.19-2.7 86.19-5.7L86.19-5.7Q86.19-7.75 86.77-9.88 87.34-12 88.37-13.98 89.39-15.95 90.77-17.7 92.14-19.45 93.72-20.75 95.29-22.05 96.97-22.8 98.64-23.55 100.29-23.55L100.29-23.55Q102.59-23.25 104.59-20.7ZM101.14-19.05L101.14-19.05Q99.79-18.85 98.34-17.95 96.89-17.05 95.62-15.55 94.34-14.05 93.29-12.05 92.24-10.05 91.64-7.75L91.64-7.75Q95.64-9.75 98.29-12.68 100.94-15.6 101.14-19.05ZM105.69-1L105.69-1Q105.94-2.45 106.57-4.83 107.19-7.2 108.04-9.88 108.89-12.55 109.84-15.25 110.79-17.95 111.69-20.1L111.69-20.1Q112.34-21.65 112.84-22.53 113.34-23.4 113.94-24L113.94-24Q114.64-23.9 115.39-23.65 116.14-23.4 116.84-23.05 117.54-22.7 118.09-22.33 118.64-21.95 118.94-21.6L118.94-21.6Q117.59-20 116.57-17.95 115.54-15.9 114.49-12.7L114.49-12.7Q117.19-15.1 119.27-17.3 121.34-19.5 123.14-22.2L123.14-22.2Q123.44-22.45 124.19-22.45L124.19-22.45Q124.89-22.45 125.54-22.23 126.19-22 126.44-21.6L126.44-21.6Q125.54-19.2 125.54-16.85L125.54-16.85Q125.54-14.65 126.19-13.55L126.19-13.55Q126.14-13.25 125.52-12.4 124.89-11.55 124.14-10.8L124.14-10.8Q122.79-11.5 121.74-12.73 120.69-13.95 120.19-15.4L120.19-15.4Q117.84-13.75 116.19-12.18 114.54-10.6 113.37-8.68 112.19-6.75 111.37-4.25 110.54-1.75 109.79 1.7L109.79 1.7Q109.34 1.65 108.72 1.38 108.09 1.1 107.47 0.7 106.84 0.3 106.34-0.15 105.84-0.6 105.69-1ZM125.84-1L125.84-1Q126.09-2.45 126.71-4.83 127.34-7.2 128.19-9.88 129.04-12.55 129.99-15.25 130.94-17.95 131.84-20.1L131.84-20.1Q132.49-21.65 132.99-22.53 133.49-23.4 134.09-24L134.09-24Q134.79-23.9 135.54-23.65 136.29-23.4 136.99-23.05 137.69-22.7 138.24-22.33 138.79-21.95 139.09-21.6L139.09-21.6Q137.74-20 136.71-17.95 135.69-15.9 134.64-12.7L134.64-12.7Q137.34-15.1 139.41-17.3 141.49-19.5 143.29-22.2L143.29-22.2Q143.59-22.45 144.34-22.45L144.34-22.45Q145.04-22.45 145.69-22.23 146.34-22 146.59-21.6L146.59-21.6Q145.69-19.2 145.69-16.85L145.69-16.85Q145.69-14.65 146.34-13.55L146.34-13.55Q146.29-13.25 145.66-12.4 145.04-11.55 144.29-10.8L144.29-10.8Q142.94-11.5 141.89-12.73 140.84-13.95 140.34-15.4L140.34-15.4Q137.99-13.75 136.34-12.18 134.69-10.6 133.51-8.68 132.34-6.75 131.51-4.25 130.69-1.75 129.94 1.7L129.94 1.7Q129.49 1.65 128.86 1.38 128.24 1.1 127.61 0.7 126.99 0.3 126.49-0.15 125.99-0.6 125.84-1ZM165.99-7.75L165.99-7.75Q164.84-4.1 163.69-1.1 162.54 1.9 161.24 4.42 159.94 6.95 158.44 9.08 156.94 11.2 155.14 13.1L155.14 13.1Q152.84 15.5 150.39 16.78 147.94 18.05 145.49 18.05L145.49 18.05Q144.24 18.05 143.01 17.78 141.79 17.5 140.71 17.03 139.64 16.55 138.81 15.93 137.99 15.3 137.64 14.6L137.64 14.6Q137.64 14 138.34 13.55L138.34 13.55Q138.94 14.1 139.34 14.4 139.74 14.7 140.11 14.9 140.49 15.1 140.91 15.15 141.34 15.2 141.89 15.2L141.89 15.2Q144.74 15.2 147.46 13.53 150.19 11.85 152.61 8.78 155.04 5.7 157.04 1.33 159.04-3.05 160.44-8.45L160.44-8.45Q159.79-7.45 158.84-6 157.89-4.55 156.74-3.13 155.59-1.7 154.36-0.55 153.14 0.6 151.99 1L151.99 1Q151.19 0.95 150.31 0.68 149.44 0.4 148.66-0.1 147.89-0.6 147.29-1.3 146.69-2 146.49-2.9L146.49-2.9Q146.49-4.35 146.59-5.23 146.69-6.1 146.94-7.15L146.94-7.15Q147.39-9.05 148.26-11.45 149.14-13.85 150.31-16.18 151.49-18.5 152.91-20.53 154.34-22.55 155.89-23.7L155.89-23.7Q156.29-23.7 156.89-23.63 157.49-23.55 158.14-23.35 158.79-23.15 159.39-22.88 159.99-22.6 160.44-22.15L160.44-22.15Q159.89-21.65 158.04-18.8 156.19-15.95 153.94-10.6L153.94-10.6Q153.69-10.05 153.34-9 152.99-7.95 152.66-6.8 152.34-5.65 152.09-4.55 151.84-3.45 151.84-2.8L151.84-2.8Q151.84-2.4 151.96-2.2 152.09-2 152.19-1.9L152.19-1.9Q153.09-2.05 154.59-3.38 156.09-4.7 157.99-7.5L157.99-7.5Q159.19-9.3 160.19-11.08 161.19-12.85 162.16-14.65 163.14-16.45 164.19-18.35 165.24-20.25 166.44-22.25L166.44-22.25Q167.09-22.25 167.84-22.1 168.59-21.95 169.29-21.73 169.99-21.5 170.51-21.23 171.04-20.95 171.29-20.65L171.29-20.65Q169.74-17.35 168.39-14.2 167.04-11.05 165.99-7.75ZM204.38 3.7L204.38 3.7Q204.28 3.75 204.18 3.75 204.08 3.75 203.78 3.75L203.78 3.75Q203.08 3.75 202.16 3.53 201.23 3.3 200.36 2.98 199.48 2.65 198.86 2.25 198.23 1.85 198.08 1.55L198.08 1.55Q198.03 0.85 198.03 0.1 198.03-0.65 198.03-1.35L198.03-1.35Q198.03-6.95 198.86-13.05 199.68-19.15 201.58-26.25L201.58-26.25Q201.78-26.95 202.01-28.03 202.23-29.1 202.48-30.35L202.48-30.35Q201.28-29.4 199.63-27.33 197.98-25.25 196.16-22.43 194.33-19.6 192.51-16.23 190.68-12.85 189.18-9.38 187.68-5.9 186.61-2.5 185.53 0.9 185.28 3.8L185.28 3.8Q182.88 3.1 181.96 2.4 181.03 1.7 181.03 0.7L181.03 0.7Q181.03-0.2 181.58-1.85 182.13-3.5 183.13-5.75 184.13-8 185.58-10.78 187.03-13.55 188.78-16.75L188.78-16.75Q190.78-20.4 192.71-23.6 194.63-26.8 196.48-29.4 198.33-32 200.11-33.9 201.88-35.8 203.63-36.8L203.63-36.8Q204.33-36.8 205.51-36.45 206.68-36.1 207.81-35.6 208.93-35.1 209.81-34.58 210.68-34.05 210.78-33.7L210.78-33.7Q210.08-32.3 209.13-29.5 208.18-26.7 207.21-23.15 206.23-19.6 205.36-15.63 204.48-11.65 203.98-8L203.98-8Q205.13-10.75 206.66-13.73 208.18-16.7 209.88-19.63 211.58-22.55 213.36-25.3 215.13-28.05 216.83-30.33 218.53-32.6 220.01-34.3 221.48-36 222.63-36.8L222.63-36.8Q223.33-36.8 224.51-36.45 225.68-36.1 226.81-35.6 227.93-35.1 228.81-34.58 229.68-34.05 229.78-33.7L229.78-33.7Q228.18-30.85 226.98-26.75 225.78-22.65 224.96-18.15 224.13-13.65 223.71-9.22 223.28-4.8 223.28-1.3L223.28-1.3Q223.28-0.15 223.28 1.1 223.28 2.35 223.38 3.7L223.38 3.7Q222.68 3.7 221.71 3.53 220.73 3.35 219.81 3.05 218.88 2.75 218.13 2.38 217.38 2 217.08 1.55L217.08 1.55Q217.03 0.85 217.03 0.1 217.03-0.65 217.03-1.35L217.03-1.35Q217.03-6.95 217.86-13.05 218.68-19.15 220.58-26.25L220.58-26.25Q220.78-26.95 221.03-28.15 221.28-29.35 221.53-30.65L221.53-30.65Q220.13-29.95 218.36-27.98 216.58-26 214.76-23.18 212.93-20.35 211.16-16.9 209.38-13.45 207.96-9.88 206.53-6.3 205.56-2.78 204.58 0.75 204.38 3.7ZM235.18 1.75L235.18 1.75Q232.33 1.45 230.63-0.75 228.93-2.95 228.93-6.35L228.93-6.35Q228.93-8.35 229.53-10.5 230.13-12.65 231.23-14.68 232.33-16.7 233.83-18.5 235.33-20.3 237.08-21.6L237.08-21.6Q239.83-23.65 242.23-23.65L242.23-23.65Q243.83-22.8 245.38-20.1L245.38-20.1Q245.63-20.1 245.83-20.13 246.03-20.15 246.28-20.15L246.28-20.15Q248.93-20.15 248.93-15.45L248.93-15.45Q248.93-12.3 247.9-9.47 246.88-6.65 245.05-4.35 243.23-2.05 240.7-0.48 238.18 1.1 235.18 1.75ZM237.73-14L237.73-14Q236.88-12.85 236.13-11.5 235.38-10.15 234.83-8.78 234.28-7.4 233.98-6.13 233.68-4.85 233.68-3.85L233.68-3.85Q233.68-2.65 234.08-1.55 234.48-0.45 234.98-0.3L234.98-0.3Q237.23-0.8 239.1-2.18 240.98-3.55 242.35-5.6 243.73-7.65 244.5-10.25 245.28-12.85 245.28-15.8L245.28-15.8Q245.28-17.1 245.13-17.85 244.98-18.6 244.63-19.15L244.63-19.15Q242.43-18.5 240.7-17.05 238.98-15.6 237.73-14ZM262.23-23.35L262.23-23.35Q263.23-23.35 264.53-22.75 265.83-22.15 266.83-21.2L266.83-21.2Q266.58-23.2 266.2-24.98 265.83-26.75 265.1-28.65 264.38-30.55 263.18-32.8 261.98-35.05 260.18-37.95L260.18-37.95Q260.33-38.4 260.85-39 261.38-39.6 262.05-40.13 262.73-40.65 263.45-41.05 264.18-41.45 264.83-41.55L264.83-41.55Q266.23-40 267.48-37.68 268.73-35.35 269.68-32.68 270.63-30 271.15-27.15 271.68-24.3 271.68-21.7L271.68-21.7Q271.68-19.1 271.1-16.35 270.53-13.6 269.5-10.98 268.48-8.35 267.13-6 265.78-3.65 264.2-1.8 262.63 0.05 260.93 1.23 259.23 2.4 257.53 2.7L257.53 2.7Q254.08 2.3 252.25 0.48 250.43-1.35 250.43-4.55L250.43-4.55Q250.43-6.25 250.95-8.25 251.48-10.25 252.35-12.23 253.23-14.2 254.4-16.07 255.58-17.95 256.9-19.45 258.23-20.95 259.58-22 260.93-23.05 262.23-23.35ZM257.13 0.7L257.13 0.7Q258.88 0.1 260.63-1.95 262.38-4 263.78-6.78 265.18-9.55 266.05-12.73 266.93-15.9 266.93-18.85L266.93-18.85Q266.93-19.7 266.93-19.9 266.93-20.1 266.88-20.3L266.88-20.3Q265.68-19.8 264.33-18.6 262.98-17.4 261.63-15.83 260.28-14.25 259.08-12.4 257.88-10.55 256.93-8.7 255.98-6.85 255.43-5.15 254.88-3.45 254.88-2.15L254.88-2.15Q254.88 0.35 257.13 0.7ZM283.87-23.35L283.87-23.35Q284.87-23.35 286.17-22.75 287.47-22.15 288.47-21.2L288.47-21.2Q288.22-23.2 287.85-24.98 287.47-26.75 286.75-28.65 286.02-30.55 284.82-32.8 283.62-35.05 281.82-37.95L281.82-37.95Q281.97-38.4 282.5-39 283.02-39.6 283.7-40.13 284.37-40.65 285.1-41.05 285.82-41.45 286.47-41.55L286.47-41.55Q287.87-40 289.12-37.68 290.37-35.35 291.32-32.68 292.27-30 292.8-27.15 293.32-24.3 293.32-21.7L293.32-21.7Q293.32-19.1 292.75-16.35 292.17-13.6 291.15-10.98 290.12-8.35 288.77-6 287.42-3.65 285.85-1.8 284.27 0.05 282.57 1.23 280.87 2.4 279.17 2.7L279.17 2.7Q275.72 2.3 273.9 0.48 272.07-1.35 272.07-4.55L272.07-4.55Q272.07-6.25 272.6-8.25 273.12-10.25 274-12.23 274.87-14.2 276.05-16.07 277.22-17.95 278.55-19.45 279.87-20.95 281.22-22 282.57-23.05 283.87-23.35ZM278.77 0.7L278.77 0.7Q280.52 0.1 282.27-1.95 284.02-4 285.42-6.78 286.82-9.55 287.7-12.73 288.57-15.9 288.57-18.85L288.57-18.85Q288.57-19.7 288.57-19.9 288.57-20.1 288.52-20.3L288.52-20.3Q287.32-19.8 285.97-18.6 284.62-17.4 283.27-15.83 281.92-14.25 280.72-12.4 279.52-10.55 278.57-8.7 277.62-6.85 277.07-5.15 276.52-3.45 276.52-2.15L276.52-2.15Q276.52 0.35 278.77 0.7ZM294.67-3.35L294.67-3.35Q294.67-3.8 294.75-4.48 294.82-5.15 295.02-6.28 295.22-7.4 295.55-9 295.87-10.6 296.37-12.85L296.37-12.85Q296.47-13.35 296.82-14.45 297.17-15.55 297.75-16.78 298.32-18 299.15-19.15 299.97-20.3 301.12-20.85L301.12-20.85Q301.97-20.65 303.37-19.83 304.77-19 305.77-17.55L305.77-17.55Q304.62-16.25 303.85-14.95 303.07-13.65 302.45-12.25 301.82-10.85 301.3-9.35 300.77-7.85 300.12-6.2L300.12-6.2Q299.57-4.8 299.12-3.33 298.67-1.85 298.62-0.75L298.62-0.75Q298.62 0.15 298.6 0.53 298.57 0.9 298.32 0.9L298.32 0.9Q298.12 0.9 297.52 0.65 296.92 0.4 296.3-0.13 295.67-0.65 295.17-1.45 294.67-2.25 294.67-3.35ZM304.22-25.05L304.22-25.05Q304.22-25.35 304.37-25.95L304.37-25.95Q304.12-26.2 303.95-26.7 303.77-27.2 303.77-27.6L303.77-27.6Q303.77-28.05 303.9-28.83 304.02-29.6 304.22-30.5 304.42-31.4 304.72-32.38 305.02-33.35 305.32-34.15L305.32-34.15Q305.92-34.15 306.8-33.83 307.67-33.5 308.57-32.98 309.47-32.45 310.22-31.83 310.97-31.2 311.37-30.65L311.37-30.65Q310.82-30.1 309.92-29.13 309.02-28.15 308.17-27.08 307.32-26 306.62-25.05 305.92-24.1 305.72-23.7L305.72-23.7Q305.12-23.8 304.67-24.23 304.22-24.65 304.22-25.05ZM314.52-24.25L314.52-24.25Q315.82-23.85 316.97-22.48 318.12-21.1 318.67-19.45L318.67-19.45Q318.12-18.1 316.97-16.2 315.82-14.3 314.67-12.33 313.52-10.35 312.59-8.58 311.67-6.8 311.52-5.65L311.52-5.65Q312.32-6.5 313.29-7.63 314.27-8.75 315.19-9.88 316.12-11 316.92-11.93 317.72-12.85 318.17-13.3L318.17-13.3Q319.12-14.3 320.42-15.63 321.72-16.95 323.14-18.13 324.57-19.3 326.02-20.13 327.47-20.95 328.67-20.95L328.67-20.95Q329.97-20.95 330.84-20.08 331.72-19.2 332.22-18.25L332.22-18.25Q332.22-18.15 331.84-17.98 331.47-17.8 330.77-17L330.77-17Q330.07-16.1 329.19-14.53 328.32-12.95 327.49-11.13 326.67-9.3 326.12-7.4 325.57-5.5 325.57-3.95L325.57-3.95Q325.57-2.7 325.89-2.35 326.22-2 326.82-2L326.82-2Q327.37-2 327.97-2.25 328.57-2.5 328.92-2.5L328.92-2.5Q329.12-2.4 329.24-2.08 329.37-1.75 329.37-1.5L329.37-1.5Q328.97-1.15 328.42-0.8 327.87-0.45 327.27-0.15 326.67 0.15 326.09 0.35 325.52 0.55 325.07 0.55L325.07 0.55Q323.62 0.55 322.69 0.13 321.77-0.3 321.24-1 320.72-1.7 320.52-2.68 320.32-3.65 320.32-4.75L320.32-4.75Q320.32-5.35 320.42-6.1 320.52-6.85 320.82-7.88 321.12-8.9 321.67-10.33 322.22-11.75 323.07-13.75L323.07-13.75Q322.97-13.75 321.72-13.05 320.47-12.35 319.02-10.9L319.02-10.9Q316.67-8.65 314.79-6.45 312.92-4.25 310.97-1.55L310.97-1.55Q309.87 0 309.04 1.07 308.22 2.15 307.62 2.5L307.62 2.5Q306.57 1.9 306.07 0.83 305.57-0.25 305.32-1.4L305.32-1.4Q305.32-2.35 305.59-3.8 305.87-5.25 306.34-7.03 306.82-8.8 307.52-10.75 308.22-12.7 309.07-14.65L309.07-14.65Q310.97-19.05 312.54-21.55 314.12-24.05 314.52-24.25ZM323.32 14.9L323.32 14.9Q323.32 14.6 323.52 14.35 323.72 14.1 323.97 13.85L323.97 13.85Q324.57 14.4 324.99 14.7 325.42 15 325.79 15.2 326.17 15.4 326.57 15.45 326.97 15.5 327.52 15.5L327.52 15.5Q330.12 15.5 332.47 14.13 334.82 12.75 336.89 10.15 338.97 7.55 340.67 3.8 342.37 0.05 343.67-4.7L343.67-4.7Q343.07-4.1 342.19-3.38 341.32-2.65 340.37-2 339.42-1.35 338.49-0.8 337.57-0.25 336.92 0L336.92 0Q336.07-0.15 335.34-0.73 334.62-1.3 334.07-2.15 333.52-3 333.22-4.08 332.92-5.15 332.92-6.35L332.92-6.35Q332.92-8.3 333.64-10.35 334.37-12.4 335.57-14.38 336.77-16.35 338.39-18.1 340.02-19.85 341.84-21.15 343.67-22.45 345.54-23.23 347.42-24 349.22-24L349.22-24Q350.97-24 351.84-23.28 352.72-22.55 353.12-20.8L353.12-20.8Q352.57-21.1 351.72-21.1L351.72-21.1Q350.52-21.1 348.94-20.15 347.37-19.2 345.74-17.68 344.12-16.15 342.52-14.18 340.92-12.2 339.69-10.15 338.47-8.1 337.69-6.15 336.92-4.2 336.92-2.65L336.92-2.65Q336.92-2.3 336.97-2.23 337.02-2.15 337.12-2.15L337.12-2.15Q337.57-2.15 338.34-2.65 339.12-3.15 340.09-3.93 341.07-4.7 342.12-5.73 343.17-6.75 344.12-7.8L344.12-7.8Q346.27-10.2 348.04-13.18 349.82-16.15 350.87-18.95L350.87-18.95Q352.22-18.85 353.27-18.5 354.32-18.15 354.72-17.75L354.72-17.75Q353.02-13.85 351.99-11.2 350.97-8.55 350.22-6.5L350.22-6.5Q348.87-2.9 347.69 0.08 346.52 3.05 345.29 5.58 344.07 8.1 342.64 10.28 341.22 12.45 339.42 14.45L339.42 14.45Q338.57 15.4 337.49 16.13 336.42 16.85 335.29 17.35 334.17 17.85 333.09 18.1 332.02 18.35 331.12 18.35L331.12 18.35Q329.92 18.35 328.67 18.07 327.42 17.8 326.34 17.32 325.27 16.85 324.47 16.23 323.67 15.6 323.32 14.9Z" opacity="1" transform="matrix(1,0,0,1,0,0)" fill="black" class="wordmark-text-0" id="SvgjsPath1265"></path></svg></g></svg></g><g transform="matrix(1,0,0,1,245.2224,82.7484529337327)"><svg viewBox="0 0 150.2976 26.26999738824711" height="26.26999738824711" width="150.2976"><g transform="matrix(1,0,0,1,0,0)"><svg width="150.2976" viewBox="2.7 -34.3 199.08 34.8" height="26.26999738824711" data-palette-color="url(#3662751a-e89c-4179-8d09-cd857f44ffa1)"><path d="M9.05-30.4Q7.85-30.4 7.25-29.8L7.25-29.8Q6.9-29.6 6.65-29.15 6.4-28.7 6.3-28.2L6.3-28.2 2.7-28.45Q2.9-29.95 3.43-31.08 3.95-32.2 4.95-33.1L4.95-33.1Q6.7-34.3 9.4-34.3L9.4-34.3 31.2-34.3 30.7-30.5 12.95-30.5 11.55-20.05 23.7-20.05 23.2-16.25 11.05-16.25 9.4-3.75 27.15-3.75 26.65 0.05 4.95 0.05 9.05-30.4ZM39.9 0.5Q34.5 0.5 30.9-3.75L30.9-3.75 33.45-6.4Q35-4.75 36.55-4 38.1-3.25 39.9-3.25L39.9-3.25Q42.35-3.25 43.95-4.38 45.55-5.5 45.8-7.5L45.8-7.5 45.85-8Q45.85-8.9 45.35-9.5 44.85-10.1 43.95-10.58 43.05-11.05 40.9-12L40.9-12Q37.45-13.4 35.87-14.7 34.3-16 34.3-18.35L34.3-18.35Q34.3-20.6 35.4-22.33 36.5-24.05 38.42-25.03 40.35-26 42.7-26L42.7-26Q44.75-26 46.7-25.3 48.65-24.6 49.7-23.55L49.7-23.55 47.75-20.7Q45.85-22.3 42.95-22.3L42.95-22.3Q40.9-22.3 39.62-21.35 38.35-20.4 38.35-18.85L38.35-18.85Q38.35-18.05 38.85-17.45 39.35-16.85 40.05-16.48 40.75-16.1 42.5-15.25L42.5-15.25Q46.45-13.6 48.15-12.18 49.85-10.75 49.85-8.35L49.85-8.35Q49.85-5.75 48.52-3.75 47.2-1.75 44.92-0.63 42.65 0.5 39.9 0.5L39.9 0.5ZM60.45 0.5Q57.4 0.5 55.87-1.18 54.34-2.85 54.34-5.85L54.34-5.85Q54.34-6.7 54.5-7.65L54.5-7.65 57.59-31.45 61.59-31.45 60.75-25 68.15-25 67.7-21.3 60.25-21.3 58.45-7.45Q58.34-6.65 58.34-6.3L58.34-6.3Q58.34-4.95 58.87-4.13 59.4-3.3 60.55-3.3L60.55-3.3Q62-3.3 63.15-4.15 64.3-5 65-6.45L65-6.45 67.9-4.2Q65 0.5 60.45 0.5L60.45 0.5ZM74.54 0.2Q73.59 0.2 72.89-0.53 72.19-1.25 72.19-2.25L72.19-2.25Q72.19-3.3 73.02-4.17 73.84-5.05 74.84-5.05L74.84-5.05Q75.84-5.05 76.57-4.3 77.29-3.55 77.29-2.55L77.29-2.55Q77.29-1.5 76.42-0.65 75.54 0.2 74.54 0.2L74.54 0.2ZM97.19-1.35Q97.64-4.85 99.96-7.78 102.29-10.7 107.24-14.3L107.24-14.3 108.39-15.05Q110.79-16.65 112.26-17.8 113.74-18.95 114.89-20.53 116.04-22.1 116.34-24.05L116.34-24.05Q116.39-24.35 116.39-24.9L116.39-24.9Q116.39-26.9 115.11-28.05 113.84-29.2 111.49-29.2L111.49-29.2Q108.64-29.2 106.46-27.53 104.29-25.85 103.29-22.95L103.29-22.95 100.14-24.95Q101.89-28.85 104.84-30.88 107.79-32.9 111.69-32.9L111.69-32.9Q115.79-32.9 118.06-30.83 120.34-28.75 120.34-25.15L120.34-25.15Q120.34-24.7 120.24-23.6L120.24-23.6Q119.89-20.95 118.64-18.95 117.39-16.95 115.69-15.53 113.99-14.1 111.09-12.05L111.09-12.05Q108.99-10.65 107.34-9.3L107.34-9.3Q105.29-7.85 103.99-6.58 102.69-5.3 101.94-3.65L101.94-3.65 119.19-3.75 118.69 0.05 96.99 0.05 97.19-1.35ZM135.69 0.45Q131.99 0.45 129.39-1.45 126.79-3.35 125.49-6.53 124.19-9.7 124.19-13.5L124.19-13.5Q124.19-15.15 124.39-16.4L124.39-16.4Q124.99-20.7 127.06-24.48 129.14-28.25 132.41-30.55 135.69-32.85 139.74-32.85L139.74-32.85Q143.39-32.85 145.96-30.95 148.54-29.05 149.84-25.88 151.14-22.7 151.14-18.85L151.14-18.85Q151.14-17.2 150.94-15.85L150.94-15.85Q150.39-11.55 148.31-7.8 146.24-4.05 142.96-1.8 139.69 0.45 135.69 0.45L135.69 0.45ZM135.89-3.3Q138.94-3.3 141.31-5.18 143.69-7.05 145.14-10.05 146.59-13.05 147.04-16.45L147.04-16.45Q147.24-18.25 147.24-19.1L147.24-19.1Q147.24-23.4 145.26-26.23 143.29-29.05 139.59-29.05L139.59-29.05Q136.59-29.05 134.19-27.23 131.78-25.4 130.28-22.4 128.78-19.4 128.34-16L128.34-16Q128.19-14.75 128.19-13.45L128.19-13.45Q128.19-9.05 130.14-6.18 132.09-3.3 135.89-3.3L135.89-3.3ZM152.33-1.35Q152.78-4.85 155.11-7.78 157.43-10.7 162.38-14.3L162.38-14.3 163.53-15.05Q165.93-16.65 167.41-17.8 168.88-18.95 170.03-20.53 171.18-22.1 171.48-24.05L171.48-24.05Q171.53-24.35 171.53-24.9L171.53-24.9Q171.53-26.9 170.26-28.05 168.98-29.2 166.63-29.2L166.63-29.2Q163.78-29.2 161.61-27.53 159.43-25.85 158.43-22.95L158.43-22.95 155.28-24.95Q157.03-28.85 159.98-30.88 162.93-32.9 166.83-32.9L166.83-32.9Q170.93-32.9 173.21-30.83 175.48-28.75 175.48-25.15L175.48-25.15Q175.48-24.7 175.38-23.6L175.38-23.6Q175.03-20.95 173.78-18.95 172.53-16.95 170.83-15.53 169.13-14.1 166.23-12.05L166.23-12.05Q164.13-10.65 162.48-9.3L162.48-9.3Q160.43-7.85 159.13-6.58 157.83-5.3 157.08-3.65L157.08-3.65 174.33-3.75 173.83 0.05 152.13 0.05 152.33-1.35ZM192.53 0.15L193.33-6.1 178.43-6.1 178.78-9.15 191.68-32.6 195.98-32.6 183.53-9.9 193.83-9.9 195.28-20.75 199.28-20.75 197.83-9.9 201.78-9.9 201.28-6.1 197.33-6.1 196.53 0.15 192.53 0.15Z" opacity="1" transform="matrix(1,0,0,1,0,0)" fill="black" class="slogan-text-1" id="SvgjsPath1264"></path></svg></g></svg></g></svg></g></svg></g><g></g></svg></g></svg></g></svg></g><defs><mask></mask></defs></svg><rect width="395.52" height="109.0184503219798" fill="black" stroke="none" visibility="hidden"></rect></g></mask></svg><rect width="395.52" height="109.0184503219798" fill="black" stroke="none" visibility="hidden"></rect></g></mask><linearGradient x1="0.054" x2="0.941" y1="0.5" y2="0.5" id="3662751a-e89c-4179-8d09-cd857f44ffa1"><stop stop-color="#8c8c8c" offset="0"></stop><stop stop-color="#e3e4e5" offset="0.498"></stop><stop stop-color="#8c8c8c" offset="1"></stop></linearGradient><rect width="395.52" height="109.0184503219798" fill="url(#3662751a-e89c-4179-8d09-cd857f44ffa1)" mask="url(#9a283e36-8102-4525-bbb6-0adba11bcb7a)" data-fill-palette-color="secondary"></rect></svg><rect width="395.52" height="109.0184503219798" fill="none" stroke="none" visibility="hidden"></rect></g></svg></g></svg>